<svg xmlns="http://www.w3.org/2000/svg" xmlns:xlink="http://www.w3.org/1999/xlink" width="285.805" height="202.589" viewBox="0 0 285.805 202.589">
  <defs>
    <clipPath id="clip-path">
      <rect id="Rectangle_1200" data-name="Rectangle 1200" width="96.643" height="181.764" rx="9.111" fill="none"/>
    </clipPath>
  </defs>
  <g id="Group_3397" data-name="Group 3397" transform="translate(-294.728 -149.138)">
    <path id="Path_711" data-name="Path 711" d="M377.458,339.916c-46.73-14.17-78.038-58.717-74.1-107.389q.1-1.255.232-2.524c2.474-24.174,16.991-45.348,35.539-60.349,27.013-21.849,63.913-31.865,88.589-1.22,18.5,22.982,39.716,39.358,70.842,37.971,32.466-1.446,53.613,21.1,54.773,52.752C556.686,350.65,441.92,359.462,377.458,339.916Z" transform="translate(-1.558)" fill="#03a305" opacity="0.1"/>
    <g id="Group_3392" data-name="Group 3392" transform="translate(295.295 156.329)">
      <path id="Path_712" data-name="Path 712" d="M435.958,390.612H303.619l-3-5.045a37.3,37.3,0,0,1-5.108-14.835c-.862-7.641.508-17.329,10.856-22.652,18.816-9.676,25.176,14.706,25.176,14.706s2.385-7.421,8.745-4.771,2.915,11.4,2.915,11.4,7.421-19.921,29.126-18.987c20.152.868,16.192,27.2,16.192,27.2s1.06-5.83,9.8-4.506,7.686,10.071,7.686,10.071Z" transform="translate(-295.295 -195.969)" fill="#03a305"/>
      <g id="Group_3380" data-name="Group 3380" transform="translate(177.759 11.677)">
        <g id="Group_3377" data-name="Group 3377">
          <g id="Group_3376" data-name="Group 3376">
            <g id="Group_3375" data-name="Group 3375" clip-path="url(#clip-path)">
              <g id="Group_3374" data-name="Group 3374" transform="translate(-3.751 -4.392)">
                <rect id="Rectangle_1197" data-name="Rectangle 1197" width="104.145" height="190.547" fill="#e5f6e5" stroke="#fff" stroke-linecap="round" stroke-linejoin="round" stroke-width="6.07"/>
                <circle id="Ellipse_13" data-name="Ellipse 13" cx="17.859" cy="17.859" r="17.859" transform="translate(16.018 29.653) rotate(-9.491)" fill="#d6eef8" stroke="#fff" stroke-linecap="round" stroke-linejoin="round" stroke-width="6.07"/>
                <circle id="Ellipse_14" data-name="Ellipse 14" cx="17.859" cy="17.859" r="17.859" transform="matrix(0.467, -0.885, 0.885, 0.467, 48.168, 110.686)" fill="#d6eef8" stroke="#fff" stroke-linecap="round" stroke-linejoin="round" stroke-width="6.07"/>
                <line id="Line_7" data-name="Line 7" y1="26.464" transform="translate(36.578)" fill="none" stroke="#fff" stroke-linecap="round" stroke-linejoin="round" stroke-width="6.07"/>
                <line id="Line_8" data-name="Line 8" x1="18.718" transform="translate(0 44.323)" fill="none" stroke="#fff" stroke-linecap="round" stroke-linejoin="round" stroke-width="6.07"/>
                <path id="Path_713" data-name="Path 713" d="M580.376,206.218c.1.343,50.532-38.95,50.532-38.95" transform="translate(-526.763 -167.268)" fill="none" stroke="#fff" stroke-linecap="round" stroke-linejoin="round" stroke-width="6.07"/>
                <line id="Line_9" data-name="Line 9" x2="52.072" transform="translate(52.073 53.2)" fill="none" stroke="#fff" stroke-linecap="round" stroke-linejoin="round" stroke-width="6.07"/>
                <line id="Line_10" data-name="Line 10" x1="20.922" y1="28.257" transform="translate(39.096 62.002)" fill="none" stroke="#fff" stroke-linecap="round" stroke-linejoin="round" stroke-width="6.07"/>
                <line id="Line_11" data-name="Line 11" x2="13.989" transform="translate(90.156 104.676)" fill="none" stroke="#fff" stroke-linecap="round" stroke-linejoin="round" stroke-width="6.07"/>
                <path id="Path_714" data-name="Path 714" d="M567.666,383.872V296.547H513.229l34.1,34.1H566.28" transform="translate(-513.229 -193.325)" fill="none" stroke="#fff" stroke-linecap="round" stroke-linejoin="round" stroke-width="6.07"/>
                <line id="Line_12" data-name="Line 12" x1="49.708" transform="translate(54.437 155.174)" fill="none" stroke="#fff" stroke-linecap="round" stroke-linejoin="round" stroke-width="6.07"/>
              </g>
              <rect id="Rectangle_1198" data-name="Rectangle 1198" width="11.778" height="39.029" transform="translate(31.518 139.719)" fill="#03a305"/>
              <path id="Path_715" data-name="Path 715" d="M566.155,219.807a10.161,10.161,0,1,1-10.162-10.162A10.162,10.162,0,0,1,566.155,219.807Z" transform="translate(-523.552 -180.201)" fill="#03a305"/>
              <rect id="Rectangle_1199" data-name="Rectangle 1199" width="19.869" height="14.182" transform="translate(5.375 77.461)" fill="#03a305"/>
            </g>
          </g>
          <rect id="Rectangle_1201" data-name="Rectangle 1201" width="96.643" height="181.764" rx="9.111" fill="none" stroke="#1d2547" stroke-miterlimit="10" stroke-width="3.399"/>
        </g>
        <g id="Group_3379" data-name="Group 3379" transform="translate(54.423 62.648)">
          <g id="Group_3378" data-name="Group 3378">
            <path id="Path_716" data-name="Path 716" d="M613.955,265.16a1.244,1.244,0,0,1-.006.145c.135,10.871-9.7,22.07-13.283,25.785-.242.253-.458.474-.64.657-.183-.178-.4-.4-.646-.657-3.6-3.731-13.514-15.011-13.289-25.93a13.932,13.932,0,0,1,27.863,0Z" transform="translate(-586.088 -251.231)" fill="#f17575"/>
            <circle id="Ellipse_15" data-name="Ellipse 15" cx="7.698" cy="7.698" r="7.698" transform="matrix(0.161, -0.987, 0.987, 0.161, 5.099, 21.803)" fill="#fff"/>
            <path id="Path_717" data-name="Path 717" d="M602.47,265.75l-4.235,2.575h1.152v5.123h2.388v-2.88h1.389v2.88h2.388v-5.123H606.7Z" transform="translate(-588.537 -254.157)" fill="#e03a5e"/>
          </g>
          <path id="Path_718" data-name="Path 718" d="M604.646,306.408a1.48,1.48,0,1,1-1.48-1.48A1.48,1.48,0,0,1,604.646,306.408Z" transform="translate(-589.232 -262.054)" fill="#e03a5e"/>
        </g>
      </g>
      <g id="Group_3386" data-name="Group 3386" transform="translate(100.125)">
        <g id="Group_3381" data-name="Group 3381" transform="translate(0 147.794)">
          <rect id="Rectangle_1202" data-name="Rectangle 1202" width="61.246" height="47.037" fill="#e39a1c"/>
          <rect id="Rectangle_1203" data-name="Rectangle 1203" width="23.028" height="47.037" fill="#fdab20"/>
          <rect id="Rectangle_1204" data-name="Rectangle 1204" width="8.82" height="2.041" transform="translate(49.732 40.668)" fill="#fff"/>
          <rect id="Rectangle_1205" data-name="Rectangle 1205" width="8.82" height="3.899" transform="translate(26.826 40.668)" fill="#fff"/>
          <rect id="Rectangle_1206" data-name="Rectangle 1206" width="8.82" height="2.042" transform="translate(49.732 43.546)" fill="#fff"/>
          <rect id="Rectangle_1207" data-name="Rectangle 1207" width="4.287" height="9.922" transform="translate(8.329)" fill="#fdd38b"/>
          <rect id="Rectangle_1208" data-name="Rectangle 1208" width="4.287" height="9.922" transform="translate(8.656 37.073)" fill="#fdd38b"/>
          <rect id="Rectangle_1209" data-name="Rectangle 1209" width="7.105" height="9.922" transform="translate(39.32)" fill="#fdd38b"/>
        </g>
        <g id="Group_3382" data-name="Group 3382" transform="translate(21.069 119.76)">
          <rect id="Rectangle_1210" data-name="Rectangle 1210" width="36.502" height="28.034" fill="#e39a1c"/>
          <rect id="Rectangle_1211" data-name="Rectangle 1211" width="13.725" height="28.034" fill="#fdab20"/>
          <rect id="Rectangle_1212" data-name="Rectangle 1212" width="5.256" height="1.217" transform="translate(29.64 24.237)" fill="#fff"/>
          <rect id="Rectangle_1213" data-name="Rectangle 1213" width="5.256" height="2.324" transform="translate(15.988 24.237)" fill="#fff"/>
          <rect id="Rectangle_1214" data-name="Rectangle 1214" width="5.256" height="1.217" transform="translate(29.64 25.953)" fill="#fff"/>
          <rect id="Rectangle_1215" data-name="Rectangle 1215" width="2.555" height="5.913" transform="translate(4.964)" fill="#fdd38b"/>
          <rect id="Rectangle_1216" data-name="Rectangle 1216" width="2.555" height="5.913" transform="translate(5.159 22.095)" fill="#fdd38b"/>
          <rect id="Rectangle_1217" data-name="Rectangle 1217" width="4.234" height="5.913" transform="translate(23.435)" fill="#fdd38b"/>
        </g>
        <g id="Group_3385" data-name="Group 3385" transform="translate(17.13)">
          <path id="Path_719" data-name="Path 719" d="M527.962,323.853l4.73-39.4s-21.426,28.116-17.42,39.81c3.141,9.17,18.991,31.675,25.687,40.962A20.648,20.648,0,0,0,547.524,362C542.792,347.712,536.578,333.526,527.962,323.853Z" transform="translate(-456.787 -183.603)" fill="#1d2547"/>
          <path id="Path_720" data-name="Path 720" d="M547.569,384.8c1.843,2.556,2.993,4.114,2.993,4.114l5.158-2.395q-.762-2.468-1.586-4.946A20.648,20.648,0,0,1,547.569,384.8Z" transform="translate(-463.397 -203.178)" fill="#ffb1b4"/>
          <path id="Path_721" data-name="Path 721" d="M519.883,187.455a.521.521,0,0,0,.048-.094c.121-.3-.039-.636-.079-.96-.119-.968.817-1.688,1.559-2.322a13.588,13.588,0,0,0,3.757-6.022,12.63,12.63,0,0,0,.739-6.389,9.719,9.719,0,0,0-3.547-5.675,13.473,13.473,0,0,0-6.221-2.647c-3.262-.54-6.937.047-9.2,2.459a11.138,11.138,0,0,0-2.547,6.84c-.124,1.569-.117,3.246-.984,4.56a15.017,15.017,0,0,1-1.761,1.884.911.911,0,0,0-.251.388c-.089.372.276.694.625.85s.761.279.938.617a3.425,3.425,0,0,1,.212,1.406,11.981,11.981,0,0,0,.281,2.252,16.085,16.085,0,0,1,.652,2.692c0,1.181.122,2.23,1.213,2.684a6.186,6.186,0,0,0,2.828,0c1.7-.513,2.256-.322,3.713-1.336q0,2.246,0,4.492l7.627-5.321A1.34,1.34,0,0,0,519.883,187.455Z" transform="translate(-454.089 -159.155)" fill="#ffb1b4"/>
          <path id="Path_722" data-name="Path 722" d="M497.85,393.573h6.506q.594-3.171,1.12-6.114h-7.827C497.751,391.239,497.85,393.573,497.85,393.573Z" transform="translate(-453.335 -204.364)" fill="#ffb1b4"/>
          <path id="Path_723" data-name="Path 723" d="M527.164,264.379l-24.518,3.61s-1.2,28.729-3.76,47.53c-1.892,13.91-1.582,36.382-1.292,47.132h7.827c3.555-19.86,4.833-32.046,4.294-38.107,0,0,16.913-35.489,18.953-42.116A25.235,25.235,0,0,0,527.164,264.379Z" transform="translate(-453.28 -179.556)" fill="#283563"/>
          <path id="Path_724" data-name="Path 724" d="M523.172,195.781v-3.836s-7.821,4.137-9.776,7.445l.189,3.428Z" transform="translate(-456.509 -164.957)" fill="#0094bd"/>
          <path id="Path_725" data-name="Path 725" d="M520.9,196.749A34.249,34.249,0,0,0,504.66,213.9c-4.964,12.183-1.053,40.461-1.053,40.461s18.8,1.2,24.518-3.61C528.124,250.748,532.787,199.908,520.9,196.749Z" transform="translate(-454.241 -165.925)" fill="#007a9c"/>
          <path id="Path_726" data-name="Path 726" d="M504.3,170.556c-2.4-3.005,4.1-8.776,10.164-8.425s13.473,2.224,13.121,11a16.9,16.9,0,0,1-7.252,13.06s-1.992-1.709-1.407-7.093S517,175,515.917,176.29s-3.188-3.627-5.412-4.447S506.176,172.9,504.3,170.556Z" transform="translate(-454.573 -158.944)" fill="#283563"/>
          <path id="Path_727" data-name="Path 727" d="M524.1,178.252s7.2-11.469-3.665-17.905-16.484,3.277-16.484,3.277-9.712-2.34-11-1.171S524.1,178.252,524.1,178.252Z" transform="translate(-452.381 -158.144)" fill="#fdab20"/>
          <path id="Path_728" data-name="Path 728" d="M505.281,176.335a4.819,4.819,0,0,1,2.238-.22c1.009.22,2.238,1.053,2.15,1.4s-.7.482-1.536,0-3.029.29-3.226-.184S504.734,176.485,505.281,176.335Z" transform="translate(-454.776 -161.754)" fill="#283563"/>
          <path id="Path_729" data-name="Path 729" d="M505.716,179.223a2.461,2.461,0,0,1,2.486.2" transform="translate(-454.961 -162.345)" fill="none" stroke="#283563" stroke-linecap="round" stroke-linejoin="round" stroke-width="0.43"/>
          <path id="Path_730" data-name="Path 730" d="M507.6,179.631a.642.642,0,1,1-.642-.642A.642.642,0,0,1,507.6,179.631Z" transform="translate(-455.082 -162.345)" fill="#283563"/>
          <path id="Path_731" data-name="Path 731" d="M506.877,179.56c0,.085-.126.155-.282.155s-.281-.069-.281-.155.126-.155.281-.155S506.877,179.474,506.877,179.56Z" transform="translate(-455.082 -162.429)" fill="#fff"/>
          <path id="Path_732" data-name="Path 732" d="M503.791,188.97s.923.386,1.864-1.128" transform="translate(-454.573 -164.13)" fill="none" stroke="#283563" stroke-linecap="round" stroke-linejoin="round" stroke-width="0.215"/>
          <g id="Group_3383" data-name="Group 3383" transform="translate(0 48.317)">
            <rect id="Rectangle_1218" data-name="Rectangle 1218" width="47.902" height="36.789" fill="#e39a1c"/>
            <rect id="Rectangle_1219" data-name="Rectangle 1219" width="18.011" height="36.789" fill="#fdab20"/>
            <rect id="Rectangle_1220" data-name="Rectangle 1220" width="6.898" height="1.597" transform="translate(38.897 31.807)" fill="#fff"/>
            <rect id="Rectangle_1221" data-name="Rectangle 1221" width="6.898" height="3.05" transform="translate(20.981 31.807)" fill="#fff"/>
            <rect id="Rectangle_1222" data-name="Rectangle 1222" width="6.898" height="1.597" transform="translate(38.897 34.058)" fill="#fff"/>
            <rect id="Rectangle_1223" data-name="Rectangle 1223" width="3.353" height="7.76" transform="translate(6.515)" fill="#fdd38b"/>
            <rect id="Rectangle_1224" data-name="Rectangle 1224" width="3.353" height="7.76" transform="translate(6.77 28.996)" fill="#fdd38b"/>
            <rect id="Rectangle_1225" data-name="Rectangle 1225" width="5.557" height="7.76" transform="translate(30.753)" fill="#fdd38b"/>
          </g>
          <g id="Group_3384" data-name="Group 3384" transform="translate(15.162 41.978)">
            <path id="Path_733" data-name="Path 733" d="M502.518,234.825c.235-4.989.8-11.01,1.054-12.163.785-3.516,2.471-10.076,7.156-9.949,8.273.226,2.745,36.1-1.768,36.889s-33.053,0-33.053,0v-3.5s16.433-3.835,26.924-4.286C502.349,241.839,502.339,238.633,502.518,234.825Z" transform="translate(-464.115 -211.12)" fill="#ffb1b4"/>
            <path id="Path_734" data-name="Path 734" d="M507.132,232.167s.529-20.757,9.458-21.434,5.319,23.577,5.319,23.577Z" transform="translate(-470.409 -210.719)" fill="#0094bd"/>
            <path id="Path_735" data-name="Path 735" d="M472.887,253.933s-2.082-2.009-2.978-1.986-2.5.272-2.83.31-1.523.038-1.512.457,1.3.8,1.808.612a2.611,2.611,0,0,1,1.194-.06,19.03,19.03,0,0,1-3.076.854c-1.191.16-4.1.91-4.067,1.408s4.741.02,4.741.02-5.122.687-5.026,1.322,2.078.286,2.656.251,1.689-.182,1.689-.182-3.456.386-3.467.764.668.422,1.882.371,1.891-.045,1.891-.045-1.869.1-1.8.481,2.039.287,3.254.3,1.812-.046,2.409-.061,3.769-1.215,4.287-1.208S473.381,254.15,472.887,253.933Z" transform="translate(-461.138 -219.028)" fill="#ffb1b4"/>
          </g>
          <path id="Path_736" data-name="Path 736" d="M493.318,391.475l-.773,2.609s-7.538,1.353-8.408,3.092a4.922,4.922,0,0,0-.676,2.8h18.555v-7.345s-.676-.532-1.4.532-3.624,1.547-3.963.725.145-1.3-.29-1.836A3.8,3.8,0,0,0,493.318,391.475Z" transform="translate(-450.472 -205.148)" fill="#007a9c"/>
          <path id="Path_737" data-name="Path 737" d="M545.549,385.984l.611,2.652s-5.9,4.887-5.8,6.83a4.93,4.93,0,0,0,.791,2.772l16.153-9.13-3.614-6.394s-.85-.13-.958,1.152-2.394,3.129-3.092,2.581-.516-1.207-1.156-1.456A3.793,3.793,0,0,0,545.549,385.984Z" transform="translate(-461.944 -203.407)" fill="#007a9c"/>
        </g>
      </g>
      <g id="Group_3391" data-name="Group 3391" transform="translate(25.366 2.317)">
        <path id="Path_738" data-name="Path 738" d="M352.094,323.853l-4.73-39.4s21.426,28.116,17.42,39.81c-3.141,9.17-18.991,31.675-25.687,40.962A20.648,20.648,0,0,1,332.532,362C337.264,347.712,343.479,333.526,352.094,323.853Z" transform="translate(-328.166 -185.92)" fill="#e03a5e"/>
        <path id="Path_739" data-name="Path 739" d="M338.7,384.8c-1.843,2.556-2.993,4.114-2.993,4.114l-5.158-2.395q.762-2.468,1.586-4.946A20.648,20.648,0,0,0,338.7,384.8Z" transform="translate(-327.766 -205.496)" fill="#ffb1b4"/>
        <path id="Path_740" data-name="Path 740" d="M362.212,187.455a.578.578,0,0,1-.048-.094c-.121-.3.04-.636.079-.96.12-.968-.817-1.688-1.558-2.322a13.6,13.6,0,0,1-3.757-6.022,12.628,12.628,0,0,1-.739-6.389,9.719,9.719,0,0,1,3.547-5.675,13.473,13.473,0,0,1,6.221-2.647c3.262-.54,6.937.047,9.2,2.459a11.144,11.144,0,0,1,2.548,6.84c.123,1.569.116,3.246.983,4.56a15.071,15.071,0,0,0,1.761,1.884.911.911,0,0,1,.251.388c.089.372-.276.694-.625.85s-.761.279-.938.617a3.425,3.425,0,0,0-.212,1.406,11.978,11.978,0,0,1-.281,2.252,16.085,16.085,0,0,0-.652,2.692c0,1.181-.122,2.23-1.213,2.684a6.183,6.183,0,0,1-2.827,0c-1.7-.513-2.256-.322-3.714-1.336q0,2.246,0,4.492l-7.628-5.321A1.34,1.34,0,0,1,362.212,187.455Z" transform="translate(-332.903 -161.472)" fill="#ffb1b4"/>
        <path id="Path_741" data-name="Path 741" d="M388.5,393.573h-6.5q-.6-3.171-1.121-6.114H388.7C388.6,391.239,388.5,393.573,388.5,393.573Z" transform="translate(-337.909 -206.682)" fill="#ffb1b4"/>
        <path id="Path_742" data-name="Path 742" d="M353,264.379l24.518,3.61s1.2,28.729,3.76,47.53c1.892,13.91,1.582,36.382,1.292,47.132h-7.827c-3.555-19.86-4.833-32.046-4.294-38.107,0,0-16.913-35.489-18.952-42.116A25.232,25.232,0,0,1,353,264.379Z" transform="translate(-331.78 -181.874)" fill="#ff426b"/>
        <path id="Path_743" data-name="Path 743" d="M362.684,195.781v-3.836s7.822,4.137,9.777,7.445l-.19,3.428Z" transform="translate(-334.243 -167.274)" fill="#283563"/>
        <path id="Path_744" data-name="Path 744" d="M360.634,196.749A34.245,34.245,0,0,1,376.878,213.9c4.964,12.183,1.053,40.461,1.053,40.461s-18.8,1.2-24.518-3.61C353.413,250.748,348.751,199.908,360.634,196.749Z" transform="translate(-332.193 -168.242)" fill="#1d2547"/>
        <path id="Path_745" data-name="Path 745" d="M381.811,176.335a4.819,4.819,0,0,0-2.238-.22c-1.009.22-2.238,1.053-2.15,1.4s.7.482,1.536,0,3.029.29,3.226-.184S382.359,176.485,381.811,176.335Z" transform="translate(-337.213 -164.071)" fill="#283563"/>
        <path id="Path_746" data-name="Path 746" d="M381.981,179.223a2.463,2.463,0,0,0-2.487.2" transform="translate(-337.632 -164.663)" fill="none" stroke="#283563" stroke-linecap="round" stroke-linejoin="round" stroke-width="0.43"/>
        <path id="Path_747" data-name="Path 747" d="M380.4,179.631a.642.642,0,1,0,.642-.642A.642.642,0,0,0,380.4,179.631Z" transform="translate(-337.815 -164.663)" fill="#283563"/>
        <path id="Path_748" data-name="Path 748" d="M381.306,179.56c0,.085.125.155.281.155s.281-.069.281-.155-.125-.155-.281-.155S381.306,179.474,381.306,179.56Z" transform="translate(-337.997 -164.747)" fill="#fff"/>
        <path id="Path_749" data-name="Path 749" d="M384.062,188.97s-.923.386-1.864-1.128" transform="translate(-338.177 -166.447)" fill="none" stroke="#283563" stroke-linecap="round" stroke-linejoin="round" stroke-width="0.215"/>
        <path id="Path_750" data-name="Path 750" d="M390.317,391.475l.773,2.609s7.538,1.353,8.408,3.092a4.928,4.928,0,0,1,.677,2.8H381.619v-7.345s.677-.532,1.4.532,3.624,1.547,3.963.725-.145-1.3.29-1.836A3.8,3.8,0,0,1,390.317,391.475Z" transform="translate(-338.06 -207.465)" fill="#1d2547"/>
        <path id="Path_751" data-name="Path 751" d="M338.821,386.483l-.611,2.652s5.9,4.887,5.8,6.829a4.931,4.931,0,0,1-.79,2.773l-16.153-9.131,3.615-6.394s.85-.129.958,1.152,2.394,3.13,3.092,2.581.517-1.207,1.156-1.456A3.8,3.8,0,0,1,338.821,386.483Z" transform="translate(-327.064 -205.825)" fill="#1d2547"/>
        <path id="Path_752" data-name="Path 752" d="M369.662,161.133c.919.094,7.968,2.308,7.812,6.7s-6.736,3.7-6.736,3.7.465,4.128-1.845,4.489-3.079-2.694-4.465-1.2,1.617,2.1,1,5.492a10.5,10.5,0,0,1-3.569,5.674,54.537,54.537,0,0,1-6.593-8.253C351.418,172.065,357.653,159.9,369.662,161.133Z" transform="translate(-332.52 -161.046)" fill="#283563"/>
        <g id="Group_3389" data-name="Group 3389" transform="translate(71.956 20.222)">
          <g id="Group_3387" data-name="Group 3387" transform="translate(0 0)">
            <rect id="Rectangle_1226" data-name="Rectangle 1226" width="19.252" height="10.682" transform="matrix(0.441, -0.898, 0.898, 0.441, 0, 17.28)" fill="#03a305"/>
            <rect id="Rectangle_1227" data-name="Rectangle 1227" width="17.409" height="9.641" transform="matrix(0.441, -0.898, 0.898, 0.441, 0.874, 16.683)" fill="rgba(255,255,255,0.31)"/>
            <path id="Path_753" data-name="Path 753" d="M429.186,195.979a3.621,3.621,0,1,1-4.846,1.654A3.62,3.62,0,0,1,429.186,195.979Z" transform="translate(-418.552 -188.234)" fill="#03a305"/>
            <text id="_" data-name="$" transform="translate(8.174 12.449) rotate(-63.841)" fill="#fff" font-size="3" font-family="Raleway-ExtraBold, Raleway" font-weight="800"><tspan x="0" y="0">$</tspan></text>
          </g>
          <g id="Group_3388" data-name="Group 3388" transform="translate(1.529 1.629)">
            <rect id="Rectangle_1228" data-name="Rectangle 1228" width="19.252" height="10.682" transform="translate(0 14.458) rotate(-48.672)" fill="#03a305"/>
            <rect id="Rectangle_1229" data-name="Rectangle 1229" width="17.409" height="9.641" transform="matrix(0.66, -0.751, 0.751, 0.66, 0.999, 14.109)" fill="rgba(255,255,255,0.31)"/>
            <path id="Path_754" data-name="Path 754" d="M433.561,198.251a3.621,3.621,0,1,1-5.11.327A3.62,3.62,0,0,1,433.561,198.251Z" transform="translate(-420.803 -190.214)" fill="#03a305"/>
            <text id="_2" data-name="$" transform="translate(9.187 11.932) rotate(-48.673)" fill="#fff" font-size="3" font-family="Raleway-ExtraBold, Raleway" font-weight="800"><tspan x="0" y="0">$</tspan></text>
          </g>
        </g>
        <g id="Group_3390" data-name="Group 3390" transform="translate(25.514 34.18)">
          <path id="Path_755" data-name="Path 755" d="M381.5,219.745c-3.1-3.915-7.071-8.477-7.953-9.263-2.688-2.4-7.886-6.741-11.616-3.905-6.587,5.01,18.832,30.92,22.958,28.928s26.844-19.284,26.844-19.284l-2.04-2.841s-15.584,6.473-24.368,12.227C385.725,225.343,383.863,222.733,381.5,219.745Z" transform="translate(-359.386 -204.216)" fill="#ffb1b4"/>
          <path id="Path_756" data-name="Path 756" d="M381.176,216.571s-12.54-16.549-20.187-11.889,9.435,22.252,9.435,22.252Z" transform="translate(-359.018 -203.855)" fill="#283563"/>
          <path id="Path_757" data-name="Path 757" d="M421.993,213.834s.52-2.847,1.26-3.351,2.192-1.239,2.481-1.4,1.259-.857,1.494-.511-.591,1.414-1.111,1.551a2.6,2.6,0,0,0-1,.648,18.99,18.99,0,0,0,3-1.1c1.06-.565,3.861-1.653,4.125-1.23s-3.839,2.783-3.839,2.783,4.561-2.43,4.854-1.859-1.522,1.445-2.01,1.753-1.477.838-1.477.838,3.032-1.7,3.262-1.4-.3.732-1.313,1.4-1.562,1.068-1.562,1.068,1.579-1.007,1.743-.66-1.489,1.423-2.47,2.139-1.5,1.02-1.992,1.356-3.77,1.213-4.186,1.52S421.719,214.3,421.993,213.834Z" transform="translate(-371.703 -204.76)" fill="#ffb1b4"/>
        </g>
      </g>
    </g>
    <line id="Line_13" data-name="Line 13" x2="284.672" transform="translate(295.295 351.16)" fill="none" stroke="#1d2547" stroke-linecap="round" stroke-linejoin="round" stroke-width="1.133"/>
  </g>
</svg>
