<svg id="Group_36" data-name="Group 36" xmlns="http://www.w3.org/2000/svg" width="24" height="24" viewBox="0 0 24 24">
  <path id="Path_19" data-name="Path 19" d="M0,0H24V24H0Z" fill="none"/>
  <path id="Path_20" data-name="Path 20" d="M5,9a1,1,0,0,1,1,1,6.97,6.97,0,0,1,4.33,1.5H12.5A4.49,4.49,0,0,1,15.854,13H19a5,5,0,0,1,4.516,2.851A13.154,13.154,0,0,1,13,21a14.447,14.447,0,0,1-7.06-1.658A1,1,0,0,1,5,20H2a1,1,0,0,1-1-1V10A1,1,0,0,1,2,9Zm1,3v5.022l.045.032A11.9,11.9,0,0,0,13,19a11.232,11.232,0,0,0,7.835-3.13l.133-.133-.12-.1a2.994,2.994,0,0,0-1.643-.63L19,15H16.889A4.574,4.574,0,0,1,17,16v1H8V15h6.79l-.034-.078A2.5,2.5,0,0,0,12.664,13.5l-.164,0H9.57A4.985,4.985,0,0,0,6,12ZM4,11H3v7H4ZM18,5a3,3,0,1,1-3,3A3,3,0,0,1,18,5Zm0,2a1,1,0,1,0,1,1A1,1,0,0,0,18,7ZM11,2A3,3,0,1,1,8,5,3,3,0,0,1,11,2Zm0,2a1,1,0,1,0,1,1A1,1,0,0,0,11,4Z" fill="#0f75bd" stroke="#fff" stroke-width="0.2"/>
</svg>
