<svg id="Group_3319" data-name="Group 3319" xmlns="http://www.w3.org/2000/svg" width="16" height="16" viewBox="0 0 16 16">
  <path id="Path_679" data-name="Path 679" d="M0,0H16V16H0Z" fill="none"/>
  <path id="Path_680" data-name="Path 680" d="M3.667,6.667a.667.667,0,0,1,.667.667,4.647,4.647,0,0,1,2.887,1H8.667a2.994,2.994,0,0,1,2.236,1H13a3.333,3.333,0,0,1,3.011,1.9A8.769,8.769,0,0,1,9,14.667a9.632,9.632,0,0,1-4.707-1.105A.665.665,0,0,1,3.667,14h-2A.667.667,0,0,1,1,13.333v-6a.667.667,0,0,1,.667-.667Zm.667,2v3.348l.03.021A7.931,7.931,0,0,0,9,13.333a7.488,7.488,0,0,0,5.223-2.087l.089-.089-.08-.067a2,2,0,0,0-1.1-.42l-.137,0H11.593a3.049,3.049,0,0,1,.074.667V12h-6V10.667h4.527l-.023-.052A1.667,1.667,0,0,0,8.776,9.67l-.109,0H6.713a3.323,3.323,0,0,0-2.379-1ZM3,8H2.333v4.667H3Zm9.333-4a2,2,0,1,1-2,2A2,2,0,0,1,12.333,4Zm0,1.333A.667.667,0,1,0,13,6,.667.667,0,0,0,12.333,5.333ZM7.667,2a2,2,0,1,1-2,2A2,2,0,0,1,7.667,2Zm0,1.333A.667.667,0,1,0,8.333,4,.667.667,0,0,0,7.667,3.333Z" transform="translate(-0.333 -0.667)" fill="#03a305"/>
</svg>
