<svg id="Group_3323" data-name="Group 3323" xmlns="http://www.w3.org/2000/svg" width="24" height="24" viewBox="0 0 24 24">
  <path id="Path_683" data-name="Path 683" d="M0,0H24V24H0Z" fill="none"/>
  <path id="Path_684" data-name="Path 684" d="M12,2a6,6,0,0,1,6,6V9h4v2H20.833l-.757,9.083a1,1,0,0,1-1,.917H4.92a1,1,0,0,1-1-.917L3.166,11H2V9H6V8a6,6,0,0,1,6-6Zm6.826,9H5.173l.667,8H18.159ZM13,13v4H11V13ZM9,13v4H7V13Zm8,0v4H15V13ZM12,4A4,4,0,0,0,8.005,7.8L8,8V9h8V8a4,4,0,0,0-3.8-3.995Z" fill="#222"/>
</svg>
