<svg id="Group_3318" data-name="Group 3318" xmlns="http://www.w3.org/2000/svg" width="16" height="16" viewBox="0 0 16 16">
  <path id="Path_677" data-name="Path 677" d="M0,0H16V16H0Z" fill="none"/>
  <path id="Path_678" data-name="Path 678" d="M6.667,1V2.333h4V1H12V2.333h2.667A.667.667,0,0,1,15.333,3V13.667a.667.667,0,0,1-.667.667h-12A.667.667,0,0,1,2,13.667V3a.667.667,0,0,1,.667-.667H5.333V1ZM14,7H3.333v6H14Zm-3.309.757.943.943L8.333,12,5.976,9.643,6.92,8.7l1.414,1.415,2.357-2.357ZM5.333,3.667h-2v2H14v-2H12v.667H10.667V3.667h-4v.667H5.333Z" transform="translate(-0.667 -0.333)" fill="#03a305"/>
</svg>
