<svg id="Group_35" data-name="Group 35" xmlns="http://www.w3.org/2000/svg" width="24" height="24" viewBox="0 0 24 24">
  <path id="Path_17" data-name="Path 17" d="M0,0H24V24H0Z" fill="none"/>
  <path id="Path_18" data-name="Path 18" d="M12,13a3,3,0,0,1,2.08,5.162L12.17,20H15v2H9V20.276l3.693-3.555A1,1,0,1,0,11,16H9A3,3,0,0,1,12,13Zm6,0v4h2V13h2v9H20V19H16V13ZM4,12a7.985,7.985,0,0,0,3,6.246v2.416A9.995,9.995,0,0,1,2,12ZM12,2a10,10,0,0,1,9.95,9H19.938A8,8,0,0,0,5.385,7.5H8v2H2v-6H4V6A9.981,9.981,0,0,1,12,2Z" fill="#0f75bd"/>
</svg>
