<svg id="Group_6" data-name="Group 6" xmlns="http://www.w3.org/2000/svg" width="24" height="24" viewBox="0 0 24 24">
  <path id="Path_11" data-name="Path 11" d="M0,0H24V24H0Z" fill="none"/>
  <path id="Path_12" data-name="Path 12" d="M12,14v2a6,6,0,0,0-6,6H4a8,8,0,0,1,8-8Zm0-1a6,6,0,1,1,6-6A6,6,0,0,1,12,13Zm0-2A4,4,0,1,0,8,7,4,4,0,0,0,12,11Zm8.828,10.071L18,24l-2.828-2.929a4.245,4.245,0,0,1,0-5.858,3.9,3.9,0,0,1,5.656,0A4.245,4.245,0,0,1,20.828,21.071Zm-1.438-1.39a2.247,2.247,0,0,0,0-3.078,1.9,1.9,0,0,0-2.78,0,2.248,2.248,0,0,0,0,3.079L18,21.12l1.39-1.44Z" fill="#222"/>
</svg>
