<svg xmlns="http://www.w3.org/2000/svg" width="24" height="20.633" viewBox="0 0 24 20.633">
  <g id="money_2_" data-name="money (2)" transform="translate(0 -28.588)">
    <g id="Group_3283" data-name="Group 3283" transform="translate(0 28.588)">
      <g id="Group_3282" data-name="Group 3282">
        <path id="Path_658" data-name="Path 658" d="M23.966,40.263h0L19.435,28.885a.471.471,0,0,0-.612-.264h0L.44,35.942a.462.462,0,0,0-.188.15A.466.466,0,0,0,0,36.5V48.75a.471.471,0,0,0,.471.471H20.258a.471.471,0,0,0,.471-.471V42.06L23.7,40.876A.471.471,0,0,0,23.966,40.263Zm-4.179,8.015H.942V36.972H19.787ZM7.861,36.032l7.889-3.143a3.748,3.748,0,0,0,2.7,1.165l.787,1.979ZM20.73,41.048V36.5a.471.471,0,0,0-.471-.471h-.008l-1-2.507a.39.39,0,0,0-.039-.059.465.465,0,0,0-.492-.363,2.817,2.817,0,0,1-2.47-1.064.467.467,0,0,0-.6-.106.53.53,0,0,0-.066.012L5.95,35.778a.465.465,0,0,0-.259.252H2.766l15.967-6.358,4.183,10.5Z" transform="translate(0 -28.588)" fill="#03a305"/>
        <path id="Path_659" data-name="Path 659" d="M32.335,194.108a2.808,2.808,0,0,1,1.9,1.894.47.47,0,0,0,.45.335.429.429,0,0,0,.072-.011.441.441,0,0,0,.064.013H46.091a.407.407,0,0,0,.057-.012.437.437,0,0,0,.528-.322v0a2.808,2.808,0,0,1,1.9-1.9.464.464,0,0,0,.322-.517.475.475,0,0,0,.014-.07v-3.758a.425.425,0,0,0-.014-.07.463.463,0,0,0-.322-.517,2.806,2.806,0,0,1-1.9-1.9.464.464,0,0,0-.52-.322.447.447,0,0,0-.066-.013H34.818a.446.446,0,0,0-.07.014.464.464,0,0,0-.517.322,2.808,2.808,0,0,1-1.9,1.9.464.464,0,0,0-.322.517.473.473,0,0,0-.013.07v3.758a.433.433,0,0,0,.013.065A.465.465,0,0,0,32.335,194.108Zm.6-4.154a3.727,3.727,0,0,0,2.07-2.07H45.9a3.728,3.728,0,0,0,2.07,2.07v3.376a3.732,3.732,0,0,0-2.07,2.07H35.009a3.732,3.732,0,0,0-2.07-2.07Z" transform="translate(-30.121 -177.585)" fill="#03a305"/>
        <path id="Path_660" data-name="Path 660" d="M130.818,224.581A2.818,2.818,0,1,0,128,221.763,2.818,2.818,0,0,0,130.818,224.581Zm0-4.7a1.879,1.879,0,1,1-1.879,1.879A1.879,1.879,0,0,1,130.818,219.884Z" transform="translate(-120.455 -207.722)" fill="#03a305"/>
        <path id="Path_661" data-name="Path 661" d="M76.7,256.354a.7.7,0,1,0-.7-.7A.7.7,0,0,0,76.7,256.354Zm0-.939a.235.235,0,1,1-.235.235A.235.235,0,0,1,76.7,255.415Z" transform="translate(-71.523 -241.612)" fill="#03a305"/>
        <path id="Path_662" data-name="Path 662" d="M252.7,256.354a.7.7,0,1,0-.7-.7A.7.7,0,0,0,252.7,256.354Zm0-.939a.235.235,0,1,1-.235.235A.235.235,0,0,1,252.7,255.415Z" transform="translate(-237.157 -241.612)" fill="#03a305"/>
      </g>
    </g>
  </g>
</svg>
